<svg width="222" height="64" viewBox="0 0 222 64" fill="none" xmlns="http://www.w3.org/2000/svg">
<circle cx="25.9204" cy="25.9204" r="25.9204" fill="url(#paint0_linear_16_9)"/>
<circle cx="44.6071" cy="37.9765" r="25.9204" fill="url(#paint1_linear_16_9)"/>
<path d="M100.98 21.5226C103.142 21.5226 105.04 21.9453 106.671 22.7907C108.323 23.6361 109.591 24.8452 110.476 26.4181C111.38 27.9713 111.832 29.78 111.832 31.8444C111.832 33.9087 111.38 35.7175 110.476 37.2707C109.591 38.8042 108.323 39.9937 106.671 40.8391C105.04 41.6845 103.142 42.1072 100.98 42.1072H93.7839V21.5226H100.98ZM100.832 38.5978C102.995 38.5978 104.666 38.008 105.846 36.8283C107.025 35.6487 107.615 33.9874 107.615 31.8444C107.615 29.7014 107.025 28.0302 105.846 26.831C104.666 25.612 102.995 25.0025 100.832 25.0025H97.9127V38.5978H100.832ZM121.175 42.3726C119.838 42.3726 118.639 42.1367 117.577 41.6648C116.515 41.1733 115.67 40.5147 115.041 39.6889C114.431 38.8632 114.097 37.949 114.038 36.9463H118.196C118.275 37.5754 118.58 38.0964 119.111 38.5093C119.661 38.9222 120.339 39.1286 121.145 39.1286C121.932 39.1286 122.541 38.9713 122.974 38.6568C123.426 38.3422 123.652 37.9391 123.652 37.4476C123.652 36.9168 123.377 36.5236 122.826 36.268C122.296 35.9928 121.44 35.6978 120.261 35.3833C119.042 35.0884 118.039 34.7836 117.253 34.4691C116.486 34.1545 115.817 33.6728 115.247 33.024C114.697 32.3752 114.421 31.5003 114.421 30.3993C114.421 29.495 114.677 28.6692 115.188 27.9221C115.719 27.175 116.466 26.5852 117.43 26.1527C118.413 25.7201 119.563 25.5039 120.88 25.5039C122.826 25.5039 124.38 25.9954 125.54 26.9784C126.699 27.9418 127.338 29.2492 127.456 30.9007H123.505C123.446 30.2519 123.17 29.7407 122.679 29.3672C122.207 28.974 121.568 28.7773 120.762 28.7773C120.015 28.7773 119.435 28.915 119.022 29.1902C118.629 29.4655 118.432 29.8488 118.432 30.3404C118.432 30.8909 118.707 31.3136 119.258 31.6085C119.808 31.8837 120.664 32.1688 121.824 32.4637C123.003 32.7586 123.977 33.0633 124.743 33.3779C125.51 33.6925 126.169 34.184 126.719 34.8524C127.289 35.5012 127.584 36.3663 127.604 37.4476C127.604 38.3913 127.338 39.2367 126.808 39.9838C126.296 40.7309 125.549 41.3208 124.566 41.7533C123.603 42.1662 122.472 42.3726 121.175 42.3726ZM133.087 23.8229C132.359 23.8229 131.75 23.5968 131.258 23.1446C130.787 22.6728 130.551 22.0928 130.551 21.4047C130.551 20.7165 130.787 20.1464 131.258 19.6942C131.75 19.2223 132.359 18.9864 133.087 18.9864C133.814 18.9864 134.414 19.2223 134.886 19.6942C135.377 20.1464 135.623 20.7165 135.623 21.4047C135.623 22.0928 135.377 22.6728 134.886 23.1446C134.414 23.5968 133.814 23.8229 133.087 23.8229ZM135.122 25.7693V42.1072H130.993V25.7693H135.122ZM145.6 25.5039C146.819 25.5039 147.891 25.7496 148.815 26.2411C149.739 26.713 150.466 27.3323 150.997 28.0991V25.7693H155.155V42.2251C155.155 43.739 154.851 45.0857 154.241 46.2654C153.632 47.4647 152.718 48.4084 151.499 49.0965C150.28 49.8043 148.805 50.1582 147.075 50.1582C144.755 50.1582 142.848 49.6175 141.354 48.5362C139.879 47.4548 139.044 45.9803 138.847 44.1126H142.946C143.162 44.8597 143.625 45.4495 144.332 45.882C145.06 46.3342 145.935 46.5603 146.957 46.5603C148.156 46.5603 149.129 46.1966 149.877 45.4691C150.624 44.7613 150.997 43.68 150.997 42.2251V39.6889C150.466 40.4557 149.729 41.0947 148.785 41.6058C147.861 42.117 146.8 42.3726 145.6 42.3726C144.224 42.3726 142.966 42.0187 141.826 41.3109C140.685 40.6031 139.781 39.6103 139.112 38.3324C138.464 37.0348 138.139 35.5504 138.139 33.8793C138.139 32.2278 138.464 30.7631 139.112 29.4851C139.781 28.2072 140.675 27.2242 141.796 26.536C142.936 25.8479 144.204 25.5039 145.6 25.5039ZM150.997 33.9382C150.997 32.9355 150.801 32.0803 150.407 31.3725C150.014 30.6451 149.483 30.0946 148.815 29.7211C148.146 29.3278 147.429 29.1312 146.662 29.1312C145.895 29.1312 145.188 29.318 144.539 29.6916C143.89 30.0651 143.359 30.6156 142.946 31.343C142.553 32.0508 142.356 32.8962 142.356 33.8793C142.356 34.8623 142.553 35.7273 142.946 36.4744C143.359 37.2019 143.89 37.7622 144.539 38.1554C145.207 38.5486 145.915 38.7452 146.662 38.7452C147.429 38.7452 148.146 38.5585 148.815 38.1849C149.483 37.7917 150.014 37.2412 150.407 36.5334C150.801 35.806 150.997 34.9409 150.997 33.9382ZM168.241 25.5334C170.188 25.5334 171.761 26.1527 172.96 27.3913C174.159 28.6102 174.759 30.3207 174.759 32.5227V42.1072H170.63V33.083C170.63 31.7854 170.306 30.7926 169.657 30.1044C169.008 29.3967 168.124 29.0428 167.003 29.0428C165.863 29.0428 164.958 29.3967 164.29 30.1044C163.641 30.7926 163.317 31.7854 163.317 33.083V42.1072H159.188V25.7693H163.317V27.8042C163.867 27.0964 164.565 26.5459 165.41 26.1527C166.275 25.7398 167.219 25.5334 168.241 25.5334Z" fill="#002834"/>
<defs>
<linearGradient id="paint0_linear_16_9" x1="51.8407" y1="-15.6728" x2="-28.3315" y2="25.9203" gradientUnits="userSpaceOnUse">
<stop stop-color="#0075FF"/>
<stop offset="0.875" stop-color="#0075FF" stop-opacity="0"/>
</linearGradient>
<linearGradient id="paint1_linear_16_9" x1="70.5275" y1="-3.61662" x2="-9.64478" y2="37.9765" gradientUnits="userSpaceOnUse">
<stop stop-color="#0075FF"/>
<stop offset="0.786458" stop-color="#0075FF" stop-opacity="0"/>
</linearGradient>
</defs>
</svg>
