<svg width="222" height="64" viewBox="0 0 222 64" fill="none" xmlns="http://www.w3.org/2000/svg">
<circle cx="25.9204" cy="25.9204" r="25.9204" fill="url(#paint0_linear_33_2998)"/>
<circle cx="44.6071" cy="37.9765" r="25.9204" fill="url(#paint1_linear_33_2998)"/>
<path d="M100.98 21.5224C103.142 21.5224 105.04 21.9451 106.671 22.7905C108.323 23.6359 109.591 24.845 110.476 26.4178C111.38 27.971 111.832 29.7798 111.832 31.8441C111.832 33.9085 111.38 35.7173 110.476 37.2704C109.591 38.804 108.323 39.9934 106.671 40.8388C105.04 41.6842 103.142 42.1069 100.98 42.1069H93.7839V21.5224H100.98ZM100.832 38.5975C102.995 38.5975 104.666 38.0077 105.846 36.8281C107.025 35.6485 107.615 33.9871 107.615 31.8441C107.615 29.7011 107.025 28.03 105.846 26.8307C104.666 25.6118 102.995 25.0023 100.832 25.0023H97.9127V38.5975H100.832ZM121.175 42.3724C119.838 42.3724 118.639 42.1364 117.577 41.6646C116.515 41.1731 115.67 40.5144 115.041 39.6887C114.431 38.8629 114.097 37.9487 114.038 36.946H118.196C118.275 37.5752 118.58 38.0962 119.111 38.5091C119.661 38.9219 120.339 39.1284 121.145 39.1284C121.932 39.1284 122.541 38.9711 122.974 38.6565C123.426 38.3419 123.652 37.9389 123.652 37.4474C123.652 36.9166 123.377 36.5233 122.826 36.2678C122.296 35.9925 121.44 35.6976 120.261 35.383C119.042 35.0881 118.039 34.7834 117.253 34.4688C116.486 34.1543 115.817 33.6726 115.247 33.0238C114.697 32.375 114.421 31.5001 114.421 30.3991C114.421 29.4947 114.677 28.669 115.188 27.9219C115.719 27.1748 116.466 26.585 117.43 26.1524C118.413 25.7199 119.563 25.5036 120.88 25.5036C122.826 25.5036 124.38 25.9951 125.54 26.9782C126.699 27.9415 127.338 29.249 127.456 30.9004H123.505C123.446 30.2516 123.17 29.7405 122.679 29.3669C122.207 28.9737 121.568 28.7771 120.762 28.7771C120.015 28.7771 119.435 28.9147 119.022 29.19C118.629 29.4652 118.432 29.8486 118.432 30.3401C118.432 30.8906 118.707 31.3133 119.258 31.6082C119.808 31.8835 120.664 32.1685 121.824 32.4634C123.003 32.7584 123.977 33.0631 124.743 33.3777C125.51 33.6922 126.169 34.1837 126.719 34.8522C127.289 35.501 127.584 36.3661 127.604 37.4474C127.604 38.3911 127.338 39.2365 126.808 39.9836C126.296 40.7307 125.549 41.3205 124.566 41.753C123.603 42.1659 122.472 42.3724 121.175 42.3724ZM133.087 23.8227C132.359 23.8227 131.75 23.5966 131.258 23.1444C130.787 22.6725 130.551 22.0925 130.551 21.4044C130.551 20.7163 130.787 20.1461 131.258 19.6939C131.75 19.2221 132.359 18.9862 133.087 18.9862C133.814 18.9862 134.414 19.2221 134.886 19.6939C135.377 20.1461 135.623 20.7163 135.623 21.4044C135.623 22.0925 135.377 22.6725 134.886 23.1444C134.414 23.5966 133.814 23.8227 133.087 23.8227ZM135.122 25.769V42.1069H130.993V25.769H135.122ZM145.6 25.5036C146.819 25.5036 147.891 25.7494 148.815 26.2409C149.739 26.7127 150.466 27.3321 150.997 28.0988V25.769H155.155V42.2249C155.155 43.7388 154.851 45.0855 154.241 46.2651C153.632 47.4644 152.718 48.4081 151.499 49.0962C150.28 49.804 148.805 50.1579 147.075 50.1579C144.755 50.1579 142.848 49.6173 141.354 48.5359C139.879 47.4546 139.044 45.9801 138.847 44.1123H142.946C143.162 44.8594 143.625 45.4492 144.332 45.8818C145.06 46.3339 145.935 46.56 146.957 46.56C148.156 46.56 149.129 46.1963 149.877 45.4689C150.624 44.7611 150.997 43.6798 150.997 42.2249V39.6887C150.466 40.4555 149.729 41.0944 148.785 41.6056C147.861 42.1168 146.8 42.3724 145.6 42.3724C144.224 42.3724 142.966 42.0185 141.826 41.3107C140.685 40.6029 139.781 39.61 139.112 38.3321C138.464 37.0345 138.139 35.5502 138.139 33.879C138.139 32.2275 138.464 30.7628 139.112 29.4849C139.781 28.2069 140.675 27.2239 141.796 26.5358C142.936 25.8477 144.204 25.5036 145.6 25.5036ZM150.997 33.938C150.997 32.9353 150.801 32.0801 150.407 31.3723C150.014 30.6449 149.483 30.0944 148.815 29.7208C148.146 29.3276 147.429 29.131 146.662 29.131C145.895 29.131 145.188 29.3178 144.539 29.6913C143.89 30.0649 143.359 30.6154 142.946 31.3428C142.553 32.0506 142.356 32.896 142.356 33.879C142.356 34.862 142.553 35.7271 142.946 36.4742C143.359 37.2016 143.89 37.762 144.539 38.1552C145.207 38.5484 145.915 38.745 146.662 38.745C147.429 38.745 148.146 38.5582 148.815 38.1847C149.483 37.7915 150.014 37.241 150.407 36.5332C150.801 35.8057 150.997 34.9407 150.997 33.938ZM168.241 25.5331C170.188 25.5331 171.761 26.1524 172.96 27.391C174.159 28.61 174.759 30.3205 174.759 32.5224V42.1069H170.63V33.0828C170.63 31.7852 170.306 30.7923 169.657 30.1042C169.008 29.3964 168.124 29.0425 167.003 29.0425C165.863 29.0425 164.958 29.3964 164.29 30.1042C163.641 30.7923 163.317 31.7852 163.317 33.0828V42.1069H159.188V25.769H163.317V27.8039C163.867 27.0961 164.565 26.5456 165.41 26.1524C166.275 25.7396 167.219 25.5331 168.241 25.5331Z" fill="white"/>
<defs>
<linearGradient id="paint0_linear_33_2998" x1="51.8407" y1="-15.6728" x2="-28.3315" y2="25.9203" gradientUnits="userSpaceOnUse">
<stop stop-color="#0075FF"/>
<stop offset="0.875" stop-color="#0075FF" stop-opacity="0"/>
</linearGradient>
<linearGradient id="paint1_linear_33_2998" x1="70.5275" y1="-3.61662" x2="-9.64478" y2="37.9765" gradientUnits="userSpaceOnUse">
<stop stop-color="#0075FF"/>
<stop offset="0.786458" stop-color="#0075FF" stop-opacity="0"/>
</linearGradient>
</defs>
</svg>
