<svg width="1085" height="292" viewBox="0 0 1085 292" fill="none" xmlns="http://www.w3.org/2000/svg">
<circle cx="1054.5" cy="277.5" r="14.5" fill="#48E587"/>
<path d="M477.135 9.26475C478.018 8.14072 479.433 7.57288 480.848 7.77511L496.074 9.95183C497.489 10.1541 498.688 11.0957 499.22 12.4219L504.948 26.6967C505.48 28.023 505.265 29.5325 504.382 30.6565L494.884 42.7546C494.001 43.8786 492.586 44.4464 491.172 44.2442L475.945 42.0675C474.531 41.8653 473.331 40.9237 472.799 39.5974L467.071 25.3226C466.539 23.9963 466.754 22.4869 467.637 21.3628L477.135 9.26475Z" fill="#806DF5"/>
<path d="M0 53.8026C21.3333 47.8026 65.6 53.4026 72 123.803C48 125.803 0 114.603 0 53.8026Z" fill="#FFA318"/>
<path d="M1003.78 112.341C1001.31 90.3173 1014.01 47.5427 1084.52 52.6328C1082.6 76.6397 1063.78 122.191 1003.78 112.341Z" fill="#2FB8E3"/>
</svg>
